<svg viewBox="0 0 200 164" xmlns="http://www.w3.org/2000/svg">
  <defs>
    <!-- Clip dome to left 60% so face opening is transparent on the right -->
    <clipPath id="c">
      <rect x="0" y="0" width="124" height="164"/>
    </clipPath>
    <filter id="sh" x="-15%" y="-10%" width="135%" height="130%">
      <feDropShadow dx="0" dy="3" stdDeviation="3" flood-opacity="0.25"/>
    </filter>
  </defs>

  <!-- Main dome: large circle, face (right) side is clipped open -->
  <circle cx="70" cy="80" r="66" fill="#fb4f14" clip-path="url(#c)" filter="url(#sh)"/>

  <!-- Top stripe -->
  <path d="M 14,22 Q 68,6 122,22"
        fill="none" stroke="#000000" stroke-width="13"
        stroke-linecap="round" clip-path="url(#c)" opacity="0.9"/>

  <!-- Shine highlight -->
  <ellipse cx="42" cy="34" rx="24" ry="9"
           fill="rgba(255,255,255,0.22)" transform="rotate(-22 42 34)"
           clip-path="url(#c)"/>

  <!-- Earhole -->
  <circle cx="20" cy="100" r="11" fill="rgba(0,0,0,0.28)"/>
  <circle cx="20" cy="100" r="7"  fill="#000000" opacity="0.75"/>

  <!-- Chin strap -->
  <path d="M 24,136 Q 68,152 112,136"
        fill="none" stroke="#000000" stroke-width="8"
        stroke-linecap="round" clip-path="url(#c)" opacity="0.8"/>

  <!-- Face-opening edge shadow -->
  <path d="M 122,16 C 148,32 154,56 154,80 C 154,106 146,128 122,148"
        fill="none" stroke="rgba(0,0,0,0.18)" stroke-width="10"/>

  <!-- ═══ Facemask cage ═══ -->
  <!-- Attachment clips (rectangular brackets where cage meets helmet) -->
  <rect x="116" y="24"  width="18" height="13" rx="4" fill="#8fa3b8"/>
  <rect x="116" y="126" width="18" height="13" rx="4" fill="#8fa3b8"/>

  <!-- Vertical bar along face edge -->
  <line x1="133" y1="28"  x2="133" y2="137"
        stroke="#8fa3b8" stroke-width="6" stroke-linecap="round"/>

  <!-- Top diagonal bar (clip → cage top-right) -->
  <line x1="133" y1="30"  x2="172" y2="46"
        stroke="#8fa3b8" stroke-width="8" stroke-linecap="round"/>

  <!-- Horizontal bar 1 -->
  <line x1="133" y1="66"  x2="178" y2="66"
        stroke="#8fa3b8" stroke-width="7" stroke-linecap="round"/>

  <!-- Horizontal bar 2 -->
  <line x1="133" y1="94"  x2="178" y2="94"
        stroke="#8fa3b8" stroke-width="7" stroke-linecap="round"/>

  <!-- Bottom diagonal bar (cage bottom-right → clip) -->
  <line x1="133" y1="135" x2="172" y2="118"
        stroke="#8fa3b8" stroke-width="8" stroke-linecap="round"/>

  <!-- Right vertical connector (closes the cage) -->
  <line x1="178" y1="46"  x2="178" y2="118"
        stroke="#8fa3b8" stroke-width="8" stroke-linecap="round"/>
</svg>
