<svg viewBox="0 0 100 106" xmlns="http://www.w3.org/2000/svg">
  <defs>
    <clipPath id="sc">
      <path d="M 50,4 L 6,18 L 6,56 C 6,78 26,98 50,104 C 74,98 94,78 94,56 L 94,18 Z"/>
    </clipPath>
  </defs>

  <!-- Shield fill -->
  <path d="M 50,4 L 6,18 L 6,56 C 6,78 26,98 50,104 C 74,98 94,78 94,56 L 94,18 Z"
    fill="#006747"/>

  <!-- Secondary accent band -->
  <rect x="6" y="42" width="88" height="20" fill="#418fde" clip-path="url(#sc)"/>

  <!-- Gloss -->
  <ellipse cx="50" cy="28" rx="26" ry="12" fill="rgba(255,255,255,0.15)"/>

  <!-- Outline -->
  <path d="M 50,4 L 6,18 L 6,56 C 6,78 26,98 50,104 C 74,98 94,78 94,56 L 94,18 Z"
    fill="none" stroke="rgba(0,0,0,0.3)" stroke-width="3"/>
</svg>
